# xmcd
#
# Track frame offsets: 
#        150
#        16744
#        37180
#        53430
#        69857
#        91301
#        110943
#        126122
#        142165
#        160248
#        174408
#
# Disc length: 2516 seconds
#
# Revision: 0
# Processed by: cddbd v1.5.2PL0 Copyright (c) Steve Scherf et al.
# Submitted via: ExactAudioCopy v0.99pb3
#
DISCID=9109d20b
DTITLE=Toby Keith - That Don't Make Me A Bad Guy
DYEAR=2008
DGENRE=Country
TTITLE0=That Don't Make Me A Bad Guy
TTITLE1=Creole Woman
TTITLE2=God Love Her
TTITLE3=Lost You Anyway
TTITLE4=Missing Me Some You
TTITLE5=Hurt A Lot Worse When You Go
TTITLE6=Time That It Would Take
TTITLE7=You Already Love Me
TTITLE8=She Never Cried In Front Of Me
TTITLE9=Cabo San Lucas
TTITLE10=I Got It For You Girl
EXTD=
EXTT0=
EXTT1=
EXTT2=
EXTT3=
EXTT4=
EXTT5=
EXTT6=
EXTT7=
EXTT8=
EXTT9=
EXTT10=
PLAYORDER=
